<?xml version="1.0" encoding="UTF-8"?>
<svg xmlns="http://www.w3.org/2000/svg" xmlns:xlink="http://www.w3.org/1999/xlink" width="20pt" height="20pt" viewBox="0 0 24 24" version="1.1">
<g id="surface1101269">
<path style=" hover:color:orange;stroke:none;fill-rule:nonzero;fill:rgb(100%,100%,100%);fill-opacity:1;" d="M 10.25 23 C 9.5625 23 9 22.441406 9 21.75 L 9 13 L 6.773438 13 C 6.089844 13 5.53125 12.445312 5.523438 11.761719 L 5.511719 10.261719 C 5.507812 9.925781 5.636719 9.609375 5.871094 9.371094 C 6.109375 9.132812 6.421875 9 6.761719 9 L 9 9 L 9 6.75 C 9 3.378906 10.722656 1.519531 13.84375 1.519531 C 15.082031 1.519531 16.160156 1.605469 16.171875 1.609375 C 16.652344 1.652344 17.015625 2.046875 17.015625 2.53125 L 17.015625 4.816406 C 17.015625 5.328125 16.601562 5.742188 16.089844 5.742188 L 14.636719 5.742188 C 14.027344 5.742188 13.53125 6.238281 13.53125 6.847656 L 13.503906 9 L 15.722656 9 C 16.078125 9 16.417969 9.152344 16.65625 9.417969 C 16.890625 9.683594 17.003906 10.039062 16.964844 10.394531 L 16.789062 11.894531 C 16.714844 12.523438 16.183594 13 15.546875 13 L 13.5 13 L 13.5 21.75 C 13.5 22.441406 12.9375 23 12.25 23 Z M 10.25 23 "/>
</g>
</svg>
