<svg fill="#000000" xmlns="http://www.w3.org/2000/svg"  viewBox="0 0 50 50" width="50px" height="50px"><path fill="none" stroke="#000000" stroke-linecap="round" stroke-linejoin="round" stroke-miterlimit="10" stroke-width="2" d="M37,4H13c-4.971,0-9,4.029-9,9v24c0,4.971,4.029,9,9,9h24c4.971,0,9-4.029,9-9V13C46,8.028,41.971,4,37,4z"/><path fill="none" stroke="#000000" stroke-linecap="round" stroke-linejoin="round" stroke-miterlimit="10" stroke-width="2" d="M39,17.604c-0.994,0.442-2.061,0.739-3.183,0.875c1.145-0.688,2.023-1.777,2.437-3.072c-1.07,0.636-2.257,1.098-3.518,1.347C33.726,15.673,32.287,15,30.694,15c-3.06,0-5.54,2.487-5.54,5.554c0,0.435,0.049,0.858,0.145,1.265c-4.603-0.233-8.685-2.443-11.418-5.803c-0.477,0.822-0.749,1.776-0.749,2.793c0,1.926,0.976,3.626,2.464,4.623c-0.909-0.029-1.762-0.279-2.509-0.696c0,0.024,0,0.046,0,0.07c0,2.692,1.909,4.934,4.441,5.446c-0.463,0.128-0.953,0.196-1.458,0.196c-0.358,0-0.705-0.035-1.044-0.1c0.707,2.205,2.752,3.813,5.175,3.857c-1.894,1.49-4.283,2.376-6.879,2.376c-0.448,0-0.888-0.025-1.321-0.077C14.45,36.081,17.363,37,20.491,37c10.189,0,15.763-8.463,15.763-15.801c0-0.242-0.006-0.482-0.016-0.719C37.319,19.697,38.258,18.718,39,17.604z"/></svg>